<?xml version="1.0" standalone="no"?>
<!DOCTYPE svg PUBLIC "-//W3C//DTD SVG 20010904//EN"
 "http://www.w3.org/TR/2001/REC-SVG-20010904/DTD/svg10.dtd">
<svg version="1.0" xmlns="http://www.w3.org/2000/svg"
 width="512.000000pt" height="512.000000pt" viewBox="0 0 512.000000 512.000000"
 preserveAspectRatio="xMidYMid meet">
<metadata>
Created by potrace 1.11, written by Peter Selinger 2001-2013
</metadata>
<g transform="translate(0.000000,512.000000) scale(0.100000,-0.100000)"
fill="#000000" stroke="none">
<path d="M1250 5104 c-393 -64 -719 -259 -955 -572 -134 -178 -242 -437 -269
-642 -4 -25 -9 -63 -13 -85 -9 -64 -11 -2453 -2 -2525 16 -115 19 -130 44
-218 42 -150 102 -281 190 -412 72 -107 88 -127 183 -223 149 -153 370 -288
582 -356 218 -70 189 -69 1534 -66 666 1 1240 6 1276 10 36 4 110 18 165 31
55 13 111 26 125 29 47 11 235 99 313 147 324 199 562 521 651 881 43 170 43
178 43 1455 0 948 -3 1247 -13 1317 -48 335 -217 649 -470 874 -196 175 -425
289 -688 344 -99 21 -121 21 -1361 22 -953 1 -1278 -1 -1335 -11z"/>
</g>
</svg>
